<svg xmlns="http://www.w3.org/2000/svg" xmlns:xlink="http://www.w3.org/1999/xlink" version="1.1" id="Layer_1" x="0px" y="0px" width="300px" height="300px" viewBox="0 0 300 300" enable-background="new 0 0 300 300" xml:space="preserve">
<g>
	<linearGradient id="SVGID_1_" gradientUnits="userSpaceOnUse" x1="151.1021" y1="105.0859" x2="151.1021" y2="199.1074">
		<stop offset="0.2836" style="stop-color:#FF4238"/>
		<stop offset="1" style="stop-color:#C1272D"/>
	</linearGradient>
	<path fill="url(#SVGID_1_)" d="M261.282,161.646c0,17.629,0,17.629,0,17.629v19.833H40.921v-18.363l5.876-65.374   c0,0-2.204-10.284,13.956-10.284c16.16,0,138.094,0,138.094,0s11.752,0.734,13.221,8.814h-35.258v30.851h41.134l2.292-1.851h33.7   C253.938,142.9,261.282,144.017,261.282,161.646z"/>
	<linearGradient id="SVGID_2_" gradientUnits="userSpaceOnUse" x1="198.5239" y1="113.9004" x2="198.5239" y2="144.751">
		<stop offset="0.0126" style="stop-color:#E8F0F4"/>
		<stop offset="0.9213" style="stop-color:#C2E4F3"/>
		<stop offset="1" style="stop-color:#A6E3FF"/>
	</linearGradient>
	<path opacity="0.9" fill="url(#SVGID_2_)" d="M220.237,142.9l-2.292,1.851h-41.134V113.9h35.258c1.469,8.08,6.611,29,6.611,29   H220.237z"/>
	<linearGradient id="SVGID_3_" gradientUnits="userSpaceOnUse" x1="40.1865" y1="183.6816" x2="40.1865" y2="199.1074">
		<stop offset="0.0013" style="stop-color:#CCCCCC"/>
		<stop offset="0.9213" style="stop-color:#808080"/>
	</linearGradient>
	<rect x="31.372" y="183.682" fill="url(#SVGID_3_)" width="17.629" height="15.426"/>
	<linearGradient id="SVGID_4_" gradientUnits="userSpaceOnUse" x1="260.5483" y1="183.6816" x2="260.5483" y2="199.1074">
		<stop offset="0.0013" style="stop-color:#CCCCCC"/>
		<stop offset="0.9213" style="stop-color:#808080"/>
	</linearGradient>
	<rect x="252.468" y="183.682" fill="url(#SVGID_4_)" width="16.16" height="15.426"/>
	<g>
		<linearGradient id="SVGID_5_" gradientUnits="userSpaceOnUse" x1="78.3823" y1="178.6377" x2="78.3823" y2="219.5762">
			<stop offset="0.3485" style="stop-color:#4D4D4D"/>
			<stop offset="0.9213" style="stop-color:#333333"/>
		</linearGradient>
		<circle fill="url(#SVGID_5_)" cx="78.382" cy="199.107" r="20.47"/>
		<linearGradient id="SVGID_6_" gradientUnits="userSpaceOnUse" x1="78.3823" y1="188.9463" x2="78.3823" y2="209.2676">
			<stop offset="0.6126" style="stop-color:#E6E6D6"/>
			<stop offset="1" style="stop-color:#999987"/>
		</linearGradient>
		<circle fill="url(#SVGID_6_)" cx="78.382" cy="199.107" r="10.161"/>
	</g>
	<g>
		<linearGradient id="SVGID_7_" gradientUnits="userSpaceOnUse" x1="220.2373" y1="178.6377" x2="220.2373" y2="219.5762">
			<stop offset="0.3485" style="stop-color:#4D4D4D"/>
			<stop offset="0.9213" style="stop-color:#333333"/>
		</linearGradient>
		<circle fill="url(#SVGID_7_)" cx="220.237" cy="199.107" r="20.47"/>
		<linearGradient id="SVGID_8_" gradientUnits="userSpaceOnUse" x1="220.2373" y1="188.9463" x2="220.2373" y2="209.2676">
			<stop offset="0.6126" style="stop-color:#E6E6D6"/>
			<stop offset="1" style="stop-color:#999987"/>
		</linearGradient>
		<circle fill="url(#SVGID_8_)" cx="220.237" cy="199.107" r="10.161"/>
	</g>
	<g>
		<linearGradient id="SVGID_9_" gradientUnits="userSpaceOnUse" x1="151.1904" y1="90.8301" x2="151.1904" y2="102.334">
			<stop offset="0.2836" style="stop-color:#FF4238"/>
			<stop offset="1" style="stop-color:#C1272D"/>
		</linearGradient>
		<path fill="url(#SVGID_9_)" d="M157.165,96.808v5.526h-11.948v-5.526c0-3.301,2.67-5.978,5.971-5.978    c1.647,0,3.144,0.671,4.225,1.752S157.165,95.16,157.165,96.808z"/>
		<linearGradient id="SVGID_10_" gradientUnits="userSpaceOnUse" x1="151.1904" y1="97.5752" x2="151.1904" y2="102.334">
			<stop offset="0" style="stop-color:#FCB500"/>
			<stop offset="0.9848" style="stop-color:#D68811"/>
		</linearGradient>
		<path fill="url(#SVGID_10_)" d="M152.54,100.984c0,0.745-0.604,1.35-1.349,1.35l0,0c-0.746,0-1.349-0.604-1.349-1.35v-2.06    c0-0.745,0.604-1.35,1.349-1.35l0,0c0.746,0,1.349,0.604,1.349,1.35V100.984z"/>
		<linearGradient id="SVGID_11_" gradientUnits="userSpaceOnUse" x1="151.02" y1="102.334" x2="151.02" y2="105.5352">
			<stop offset="0.3485" style="stop-color:#4D4D4D"/>
			<stop offset="0.9213" style="stop-color:#333333"/>
		</linearGradient>
		<path fill="url(#SVGID_11_)" d="M158.939,103.935c0,0.884-0.717,1.601-1.602,1.601h-12.636c-0.885,0-1.602-0.717-1.602-1.601    c0-0.439,0.18-0.844,0.469-1.133c0.289-0.289,0.688-0.468,1.133-0.468h12.636C158.222,102.334,158.939,103.051,158.939,103.935z"/>
		<linearGradient id="SVGID_12_" gradientUnits="userSpaceOnUse" x1="151.1904" y1="80.4238" x2="151.1904" y2="87.1689">
			<stop offset="0.2836" style="stop-color:#FFA738"/>
			<stop offset="1" style="stop-color:#C1272D"/>
		</linearGradient>
		<path fill="url(#SVGID_12_)" d="M152.057,81.197v5.197c0,0.428-0.387,0.774-0.867,0.774c-0.479,0-0.867-0.347-0.867-0.774v-5.197    c0-0.428,0.387-0.773,0.867-0.773C151.67,80.424,152.057,80.77,152.057,81.197z"/>
		<g>
			<linearGradient id="SVGID_13_" gradientUnits="userSpaceOnUse" x1="162.9819" y1="87.1689" x2="162.9819" y2="92.4883">
				<stop offset="0.2836" style="stop-color:#FFA738"/>
				<stop offset="1" style="stop-color:#C1272D"/>
			</linearGradient>
			<path fill="url(#SVGID_13_)" d="M165.433,88.604l-3.675,3.675c-0.303,0.302-0.822,0.273-1.161-0.065     c-0.339-0.34-0.368-0.858-0.065-1.161l3.674-3.675c0.303-0.302,0.822-0.273,1.161,0.065S165.734,88.302,165.433,88.604z"/>
			<linearGradient id="SVGID_14_" gradientUnits="userSpaceOnUse" x1="139.3999" y1="87.1689" x2="139.3999" y2="92.4878">
				<stop offset="0.2836" style="stop-color:#FFA738"/>
				<stop offset="1" style="stop-color:#C1272D"/>
			</linearGradient>
			<path fill="url(#SVGID_14_)" d="M138.175,87.378l3.675,3.675c0.303,0.302,0.274,0.821-0.065,1.16s-0.858,0.368-1.161,0.066     l-3.674-3.676c-0.303-0.302-0.274-0.821,0.065-1.16S137.873,87.076,138.175,87.378z"/>
		</g>
		<g>
			<linearGradient id="SVGID_15_" gradientUnits="userSpaceOnUse" x1="164.9663" y1="99.0879" x2="164.9663" y2="100.8213">
				<stop offset="0.2836" style="stop-color:#FFA738"/>
				<stop offset="1" style="stop-color:#C1272D"/>
			</linearGradient>
			<path fill="url(#SVGID_15_)" d="M167.565,100.821h-5.197c-0.428,0-0.774-0.388-0.774-0.867s0.347-0.866,0.774-0.866h5.197     c0.428,0,0.774,0.387,0.774,0.866S167.993,100.821,167.565,100.821z"/>
			<linearGradient id="SVGID_16_" gradientUnits="userSpaceOnUse" x1="137.4146" y1="99.0879" x2="137.4146" y2="100.8213">
				<stop offset="0.2836" style="stop-color:#FFA738"/>
				<stop offset="1" style="stop-color:#C1272D"/>
			</linearGradient>
			<path fill="url(#SVGID_16_)" d="M140.013,100.821h-5.197c-0.428,0-0.774-0.388-0.774-0.867s0.347-0.866,0.774-0.866h5.197     c0.428,0,0.774,0.387,0.774,0.866S140.44,100.821,140.013,100.821z"/>
		</g>
	</g>
	<linearGradient id="SVGID_17_" gradientUnits="userSpaceOnUse" x1="111.7632" y1="124.6807" x2="111.7632" y2="171.3115">
		<stop offset="0.6126" style="stop-color:#E6E6D6"/>
		<stop offset="1" style="stop-color:#999987"/>
	</linearGradient>
	<polygon fill="url(#SVGID_17_)" points="135.078,139.467 120.292,139.467 120.292,124.681 103.235,124.681 103.235,139.467    88.449,139.467 88.449,156.524 103.235,156.524 103.235,171.312 120.292,171.312 120.292,156.524 135.078,156.524  "/>
</g>
</svg>